<svg width="520" height="520" viewBox="0 0 520 520" fill="none" xmlns="http://www.w3.org/2000/svg">
<g filter="url(#filter0_d_2726_181)">
<rect x="4" width="512" height="512" rx="256" fill="black"/>
<path d="M240.919 68.0273C209.122 70.6497 170.878 84.8542 144.217 103.757C132.634 112.171 113.513 130.09 104.334 141.235C59.9715 195.431 47.8428 270.606 72.7558 337.586C79.4212 355.615 92.7518 378.998 103.023 390.908C106.738 395.17 106.738 395.17 115.37 391.236C120.178 388.941 128.81 385.445 134.711 383.369C149.899 377.906 157.766 373.426 166.289 365.34C174.702 357.473 180.057 349.278 183.553 339.007C186.94 329.173 186.94 311.144 183.662 300.545C177.98 282.735 164.322 272.245 139.955 267.219C128.592 264.925 113.622 265.689 107.394 268.858C101.93 271.699 101.602 271.699 101.602 269.623C101.602 267.765 110.999 260.554 117.993 257.057C120.615 255.746 127.062 253.779 132.197 252.687C143.015 250.392 141.922 248.753 130.231 249.737C114.715 251.048 103.241 258.259 97.341 270.497C93.5167 278.255 91.5498 288.963 92.5332 295.956C93.0796 299.78 92.8611 300.764 91.4406 300.764C90.2386 300.764 88.9274 296.94 86.1957 285.685C83.1362 272.901 82.5899 268.749 82.5899 257.057C82.5899 237.062 86.9606 225.37 98.8708 213.788C107.503 205.484 116.463 200.785 129.247 197.617C139.3 195.213 139.3 195.213 146.402 181.118C158.531 156.751 169.567 148.228 198.304 141.017C208.029 138.504 208.685 138.504 281.894 138.504C322.432 138.504 358.163 138.067 361.113 137.63C375.973 135.117 385.37 131.62 389.413 127.14C391.708 124.518 394.986 123.971 394.112 126.375C392.91 129.544 378.923 146.699 373.788 151.288C370.838 154.02 365.046 157.953 360.894 160.138C353.464 164.072 353.464 164.072 357.944 164.181C365.374 164.181 373.569 161.122 378.377 156.423C382.748 152.162 384.824 151.725 383.841 155.222C383.622 156.205 381.109 160.466 378.268 164.728C372.477 173.36 365.374 178.823 358.49 179.916C355.977 180.243 354.01 181.008 354.01 181.445C354.01 181.992 357.288 184.505 361.441 187.236C370.947 193.465 387.119 209.745 393.128 219.033C397.39 225.589 407.552 247.114 407.552 249.518C407.552 251.594 404.492 250.392 402.635 247.661C397.936 240.34 377.612 222.092 376.082 223.731C375.755 224.059 379.142 227.993 383.513 232.473C403.509 252.687 415.637 278.364 420.008 310.051C420.991 316.607 422.412 326.004 423.395 330.812C425.581 342.394 432.465 364.138 433.885 364.138C435.306 364.138 444.593 344.47 448.855 332.451C455.301 314.094 460 286.45 460 267.438C460 236.297 451.368 201.66 436.835 174.015C399.029 102.446 322.978 61.2528 240.919 68.0273Z" fill="white"/>
<path d="M348.549 266.129C348.549 266.457 351.499 268.314 355.105 270.281C369.747 278.039 381.329 296.286 387.885 321.527C388.978 326.007 391.491 338.354 393.349 348.952C397.064 370.587 399.468 378.782 405.149 389.818C409.739 398.668 423.288 413.31 426.894 413.31C430.5 413.31 448.092 393.642 445.688 392.222C445.469 392.112 441.426 390.146 436.837 387.851C419.026 379.001 406.461 358.896 403.729 334.966C402.418 323.603 398.812 311.365 393.676 300.766C387.12 287.108 377.068 276.728 364.72 270.827C356.853 267.112 348.549 264.708 348.549 266.129Z" fill="white"/>
<path d="M229.995 349.611C232.508 356.276 232.836 362.067 231.087 368.623C226.061 388.4 214.588 394.847 158.206 409.379C127.83 417.246 100.513 426.862 100.513 429.703C100.513 431.888 118.87 445 122.038 445C122.694 445 125.863 443.252 129.032 441.066C137.773 435.057 153.289 427.955 167.275 423.584C221.581 406.429 230.104 402.058 238.081 387.089C244.637 374.961 243.435 362.286 234.803 351.796C231.306 347.535 228.684 346.442 229.995 349.611Z" fill="white"/>
</g>
<defs>
<filter id="filter0_d_2726_181" x="0" y="0" width="520" height="520" filterUnits="userSpaceOnUse" color-interpolation-filters="sRGB">
<feFlood flood-opacity="0" result="BackgroundImageFix"/>
<feColorMatrix in="SourceAlpha" type="matrix" values="0 0 0 0 0 0 0 0 0 0 0 0 0 0 0 0 0 0 127 0" result="hardAlpha"/>
<feOffset dy="4"/>
<feGaussianBlur stdDeviation="2"/>
<feComposite in2="hardAlpha" operator="out"/>
<feColorMatrix type="matrix" values="0 0 0 0 0 0 0 0 0 0 0 0 0 0 0 0 0 0 0.25 0"/>
<feBlend mode="normal" in2="BackgroundImageFix" result="effect1_dropShadow_2726_181"/>
<feBlend mode="normal" in="SourceGraphic" in2="effect1_dropShadow_2726_181" result="shape"/>
</filter>
</defs>
</svg>
